<svg width="595" height="595" viewBox="0 0 595 595" fill="none" xmlns="http://www.w3.org/2000/svg">
<circle cx="297.5" cy="297.5" r="297.5" fill="white" fill-opacity="0.5"/>
<circle cx="297.5" cy="297.5" r="297.5" fill="#44E371"/>
<path d="M354.672 153.765C299.406 104.839 163.197 152.027 102 181.737C147.424 146.654 182.912 105.408 295.526 100.193C353.209 97.5215 416.657 122.949 433.218 156.61C446.467 183.538 438.739 207.338 433.218 215.871C435.426 213.817 443.155 209.044 456.404 206.389C469.652 203.734 495.361 205.283 506.559 206.389L435.111 242.895C484.794 237.521 563.813 242.895 589.364 310.69C619.008 389.345 529.745 487.526 367.921 493.69C238.462 498.62 157.518 443.594 133.229 415.464C189.536 431.109 234.014 446.28 347.575 437.747C415.113 432.671 499.462 392.708 477.223 323.016C459.432 267.263 345.209 284.299 290.321 299.786C334.799 271.498 409.938 202.692 354.672 153.765Z" fill="white"/>
</svg>
