<svg width="241" height="50" viewBox="0 0 241 50" fill="none" xmlns="http://www.w3.org/2000/svg">
<circle cx="24.8028" cy="24.8028" r="24.8028" fill="white" fill-opacity="0.5"/>
<circle cx="24.8028" cy="24.8028" r="24.8028" fill="#44E371"/>
<path d="M29.5692 12.8195C24.9616 8.74045 13.6058 12.6745 8.50378 15.1515C12.2908 12.2266 15.2495 8.78786 24.6382 8.3531C29.4472 8.1304 34.737 10.2503 36.1176 13.0566C37.2222 15.3017 36.5779 17.2858 36.1176 17.9973C36.3017 17.826 36.9461 17.4281 38.0506 17.2068C39.1552 16.9854 41.2985 17.1146 42.2321 17.2068L36.2754 20.2502C40.4175 19.8023 47.0054 20.2502 49.1356 25.9024C51.6071 32.4599 44.1651 40.6453 30.6738 41.1592C19.8807 41.5702 13.1324 36.9827 11.1074 34.6375C15.8017 35.9418 19.5099 37.2066 28.9775 36.4952C34.6082 36.0721 41.6404 32.7403 39.7863 26.93C38.3031 22.2818 28.7803 23.7021 24.2042 24.9933C27.9124 22.6349 34.1768 16.8985 29.5692 12.8195Z" fill="white"/>
<path d="M84.6448 38.5193C82.5973 38.5193 80.6888 38.1907 78.9194 37.5334C77.1753 36.8509 75.6586 35.8904 74.3694 34.6518C73.0803 33.4132 72.0692 31.9597 71.3361 30.2914C70.6284 28.6231 70.2745 26.7905 70.2745 24.7935C70.2745 22.7966 70.6284 20.964 71.3361 19.2956C72.0692 17.6273 73.0803 16.1739 74.3694 14.9353C75.6839 13.6967 77.2132 12.7488 78.9573 12.0915C80.7015 11.409 82.6099 11.0678 84.6827 11.0678C86.983 11.0678 89.0557 11.4722 90.901 12.2811C92.7715 13.0647 94.3388 14.2275 95.6026 15.7694L91.6593 19.4094C90.7493 18.373 89.7382 17.602 88.626 17.0965C87.5138 16.5657 86.3005 16.3003 84.986 16.3003C83.7474 16.3003 82.6099 16.5025 81.5736 16.9069C80.5372 17.3114 79.6398 17.8927 78.8815 18.6511C78.1232 19.4094 77.5291 20.3068 77.0994 21.3431C76.695 22.3795 76.4928 23.5296 76.4928 24.7935C76.4928 26.0574 76.695 27.2075 77.0994 28.2439C77.5291 29.2803 78.1232 30.1777 78.8815 30.936C79.6398 31.6943 80.5372 32.2757 81.5736 32.6801C82.6099 33.0846 83.7474 33.2868 84.986 33.2868C86.3005 33.2868 87.5138 33.034 88.626 32.5285C89.7382 31.9976 90.7493 31.2014 91.6593 30.1397L95.6026 33.7797C94.3388 35.3217 92.7715 36.4971 90.901 37.3059C89.0557 38.1148 86.9703 38.5193 84.6448 38.5193Z" fill="#121214"/>
<path d="M111.89 17.3619C113.508 17.3619 114.949 17.6905 116.213 18.3477C117.502 18.9797 118.513 19.9655 119.246 21.3052C119.979 22.6197 120.346 24.3133 120.346 26.386V38.0643H114.431V27.296C114.431 25.653 114.064 24.4396 113.331 23.656C112.623 22.8724 111.612 22.4806 110.298 22.4806C109.362 22.4806 108.516 22.6829 107.757 23.0873C107.024 23.4665 106.443 24.0605 106.013 24.8694C105.609 25.6782 105.406 26.7146 105.406 27.9785V38.0643H99.4915V9.9303H105.406V23.3148L104.079 21.6086C104.812 20.2436 105.861 19.1945 107.226 18.4615C108.591 17.7284 110.146 17.3619 111.89 17.3619Z" fill="#121214"/>
<path d="M138.378 38.0643V34.083L137.998 33.211V26.0827C137.998 24.8188 137.607 23.833 136.823 23.1252C136.065 22.4174 134.889 22.0635 133.297 22.0635C132.21 22.0635 131.136 22.2405 130.074 22.5944C129.037 22.923 128.153 23.378 127.42 23.9594L125.296 19.8265C126.409 19.0429 127.748 18.4362 129.316 18.0065C130.883 17.5768 132.475 17.3619 134.093 17.3619C137.202 17.3619 139.616 18.095 141.335 19.5611C143.054 21.0272 143.913 23.3148 143.913 26.4239V38.0643H138.378ZM132.159 38.3676C130.567 38.3676 129.202 38.1022 128.064 37.5714C126.927 37.0153 126.055 36.2696 125.448 35.3343C124.841 34.399 124.538 33.35 124.538 32.1872C124.538 30.9739 124.829 29.9122 125.41 29.0023C126.017 28.0923 126.965 27.3845 128.254 26.8789C129.543 26.3481 131.224 26.0827 133.297 26.0827H138.719V29.5331H133.941C132.551 29.5331 131.591 29.7606 131.06 30.2156C130.554 30.6706 130.301 31.2393 130.301 31.9218C130.301 32.6801 130.592 33.2868 131.173 33.7418C131.78 34.1715 132.602 34.3864 133.638 34.3864C134.624 34.3864 135.509 34.1589 136.292 33.7039C137.076 33.2236 137.645 32.5285 137.998 31.6185L138.908 34.3485C138.479 35.6629 137.695 36.6614 136.558 37.3439C135.42 38.0264 133.954 38.3676 132.159 38.3676Z" fill="#121214"/>
<path d="M149.425 38.0643V17.6652H155.074V23.4285L154.278 21.7602C154.885 20.3194 155.858 19.2325 157.198 18.4994C158.537 17.7411 160.168 17.3619 162.089 17.3619V22.8219C161.836 22.7966 161.608 22.784 161.406 22.784C161.204 22.7587 160.989 22.746 160.762 22.746C159.144 22.746 157.829 23.2137 156.818 24.1489C155.833 25.0589 155.34 26.4871 155.34 28.4335V38.0643H149.425Z" fill="#121214"/>
<path d="M165.801 38.0643V17.6652H171.716V38.0643H165.801Z" fill="#121214"/>
<path d="M185.705 38.3676C183.304 38.3676 181.433 37.7609 180.093 36.5476C178.754 35.309 178.084 33.4764 178.084 31.0497V13.1532H183.999V30.9739C183.999 31.8333 184.226 32.5032 184.681 32.9835C185.136 33.4385 185.756 33.666 186.539 33.666C187.474 33.666 188.271 33.4132 188.928 32.9076L190.52 37.0784C189.914 37.5082 189.181 37.8368 188.321 38.0643C187.487 38.2665 186.615 38.3676 185.705 38.3676ZM174.937 22.6702V18.1202H189.08V22.6702H174.937Z" fill="#121214"/>
<path d="M196.207 45.7234C195.145 45.7234 194.096 45.5591 193.06 45.2305C192.023 44.9019 191.176 44.4469 190.519 43.8655L192.68 39.6568C193.135 40.0612 193.654 40.3772 194.235 40.6047C194.842 40.8322 195.436 40.9459 196.017 40.9459C196.851 40.9459 197.509 40.7437 197.989 40.3393C198.494 39.9601 198.949 39.3155 199.354 38.4055L200.415 35.903L200.87 35.2585L208.188 17.6652H213.876L204.662 39.3155C204.005 40.9586 203.247 42.2477 202.387 43.183C201.553 44.1183 200.618 44.7755 199.581 45.1546C198.57 45.5338 197.445 45.7234 196.207 45.7234ZM199.695 38.8605L190.595 17.6652H196.7L203.752 34.7276L199.695 38.8605Z" fill="#121214"/>
<path d="M84.6448 38.5281C82.5973 38.5281 80.6888 38.1995 78.9194 37.5423C77.1753 36.8598 75.6586 35.8993 74.3694 34.6607C73.0803 33.4221 72.0692 31.9686 71.3361 30.3003C70.6284 28.632 70.2745 26.7993 70.2745 24.8024C70.2745 22.8055 70.6284 20.9728 71.3361 19.3045C72.0692 17.6362 73.0803 16.1827 74.3694 14.9441C75.6839 13.7055 77.2132 12.7576 78.9573 12.1004C80.7015 11.4179 82.6099 11.0767 84.6827 11.0767C86.983 11.0767 89.0557 11.4811 90.901 12.29C92.7715 13.0736 94.3388 14.2364 95.6026 15.7783L91.6593 19.4183C90.7493 18.3819 89.7382 17.6109 88.626 17.1054C87.5138 16.5745 86.3005 16.3091 84.986 16.3091C83.7474 16.3091 82.6099 16.5113 81.5736 16.9158C80.5372 17.3202 79.6398 17.9016 78.8815 18.6599C78.1232 19.4183 77.5291 20.3156 77.0994 21.352C76.695 22.3884 76.4928 23.5385 76.4928 24.8024C76.4928 26.0663 76.695 27.2164 77.0994 28.2528C77.5291 29.2892 78.1232 30.1865 78.8815 30.9449C79.6398 31.7032 80.5372 32.2846 81.5736 32.689C82.6099 33.0934 83.7474 33.2957 84.986 33.2957C86.3005 33.2957 87.5138 33.0429 88.626 32.5373C89.7382 32.0065 90.7493 31.2103 91.6593 30.1486L95.6026 33.7886C94.3388 35.3305 92.7715 36.5059 90.901 37.3148C89.0557 38.1237 86.9703 38.5281 84.6448 38.5281Z" fill="#121214"/>
<path d="M227.017 38.0637C224.67 38.0637 222.34 37.7545 220.025 37.1362C217.711 36.4853 215.75 35.5741 214.143 34.4025L217.18 28.3494C218.466 29.2932 219.961 30.0417 221.665 30.5949C223.368 31.1482 225.088 31.4248 226.824 31.4248C228.785 31.4248 230.328 31.0343 231.453 30.2532C232.578 29.4722 233.14 28.3982 233.14 27.0314C233.14 25.7296 232.642 24.7045 231.646 23.956C230.649 23.2075 229.042 22.8332 226.824 22.8332H223.256V17.61L232.658 6.82173L233.526 9.65303H215.83V3.30701H239.457V8.43264L230.103 19.2209L226.149 16.9266H228.415C232.562 16.9266 235.696 17.8703 237.818 19.7579C239.939 21.6454 241 24.0699 241 27.0314C241 28.9515 240.502 30.7576 239.505 32.4499C238.509 34.1096 236.982 35.4602 234.925 36.5016C232.867 37.543 230.231 38.0637 227.017 38.0637Z" fill="#121214"/>
<path d="M171.381 11.5523C172.207 13.0894 171.679 14.9794 170.201 15.7738C168.724 16.5681 166.856 15.966 166.03 14.429C165.203 12.8919 165.732 11.0019 167.209 10.2075C168.687 9.41316 170.555 10.0152 171.381 11.5523Z" fill="#121214"/>
</svg>
