<svg width="32" height="32" viewBox="0 0 32 32" fill="none" xmlns="http://www.w3.org/2000/svg">
  <circle cx="16" cy="16" r="16" fill="#44E371"/>
  <path fill-rule="evenodd" clip-rule="evenodd" d="M17 20.5899L22.2929 15.297C22.6834 14.9065 23.3166 14.9065 23.7071 15.297C24.0976 15.6876 24.0976 16.3207 23.7071 16.7112L16.7142 23.7042C16.3197 24.0986 15.6802 24.0986 15.2858 23.7042L8.29289 16.7112C7.90237 16.3207 7.90237 15.6876 8.29289 15.297C8.68342 14.9065 9.31658 14.9065 9.70711 15.297L15 20.5899L15 8.94165C15 8.42388 15.4477 8.00415 16 8.00415C16.5523 8.00415 17 8.42388 17 8.94165L17 20.5899Z" fill="black"/>
  <path d="M17 20.5899L17.1768 20.7667L16.75 21.1935V20.5899H17ZM22.2929 15.297L22.4697 15.4738L22.2929 15.297ZM23.7071 15.297L23.5303 15.4738H23.5303L23.7071 15.297ZM23.7071 16.7112L23.5303 16.5345H23.5303L23.7071 16.7112ZM16.7142 23.7042L16.891 23.881V23.881L16.7142 23.7042ZM15.2858 23.7042L15.4626 23.5274V23.5274L15.2858 23.7042ZM8.29289 16.7112L8.46967 16.5345H8.46967L8.29289 16.7112ZM8.29289 15.297L8.46967 15.4738H8.46967L8.29289 15.297ZM9.70711 15.297L9.53033 15.4738H9.53033L9.70711 15.297ZM15 20.5899H15.25L15.25 21.1935L14.8232 20.7667L15 20.5899ZM15 8.94165H15.25H15ZM17 8.94165H17.25H17ZM16.8232 20.4132L22.1161 15.1203L22.4697 15.4738L17.1768 20.7667L16.8232 20.4132ZM22.1161 15.1203C22.6043 14.6321 23.3957 14.6321 23.8839 15.1203L23.5303 15.4738C23.2374 15.1809 22.7626 15.1809 22.4697 15.4738L22.1161 15.1203ZM23.8839 15.1203C24.372 15.6084 24.372 16.3999 23.8839 16.888L23.5303 16.5345C23.8232 16.2416 23.8232 15.7667 23.5303 15.4738L23.8839 15.1203ZM23.8839 16.888L16.891 23.881L16.5374 23.5274L23.5303 16.5345L23.8839 16.888ZM16.891 23.881C16.3989 24.373 15.6011 24.373 15.109 23.881L15.4626 23.5274C15.7594 23.8242 16.2406 23.8242 16.5374 23.5274L16.891 23.881ZM15.109 23.881L8.11612 16.888L8.46967 16.5345L15.4626 23.5274L15.109 23.881ZM8.11612 16.888C7.62796 16.3999 7.62796 15.6084 8.11612 15.1203L8.46967 15.4738C8.17678 15.7667 8.17678 16.2416 8.46967 16.5345L8.11612 16.888ZM8.11612 15.1203C8.60427 14.6321 9.39573 14.6321 9.88388 15.1203L9.53033 15.4738C9.23744 15.1809 8.76256 15.1809 8.46967 15.4738L8.11612 15.1203ZM9.88388 15.1203L15.1768 20.4132L14.8232 20.7667L9.53033 15.4738L9.88388 15.1203ZM15.25 8.94165L15.25 20.5899H14.75L14.75 8.94165H15.25ZM16 8.25415C15.5703 8.25415 15.25 8.57691 15.25 8.94165H14.75C14.75 8.27086 15.3251 7.75415 16 7.75415V8.25415ZM16.75 8.94165C16.75 8.57691 16.4297 8.25415 16 8.25415V7.75415C16.6749 7.75415 17.25 8.27086 17.25 8.94165H16.75ZM16.75 20.5899L16.75 8.94165H17.25L17.25 20.5899H16.75Z" fill="black"/>
</svg>
